HIERARCHY
ROOT root
{
	OFFSET	0	13.1	24.9
	CHANNELS 6  Xposition Yposition Zposition Xrotation Yrotation Zrotation
	JOINT spine_1
	{
		OFFSET	0	9.99999	0
		CHANNELS 3  Xrotation Yrotation Zrotation
		JOINT spine_2
		{
			OFFSET	0	112	-10
			CHANNELS 3  Xrotation Yrotation Zrotation
			JOINT spine_3
			{
				OFFSET	0	206.5	19.3
				CHANNELS 3  Xrotation Yrotation Zrotation
				JOINT spine_4
				{
					OFFSET	0	110.4	14.6
					CHANNELS 3  Xrotation Yrotation Zrotation
					JOINT neck_1
					{
						OFFSET	0	71.8	-50.3
						CHANNELS 3  Xrotation Yrotation Zrotation
						JOINT neck_2
						{
							OFFSET	0	86.2	-25.8
							CHANNELS 3  Xrotation Yrotation Zrotation
							JOINT head_ee
							{
								OFFSET	0	179.8	-8.7
								CHANNELS 3  Xrotation Yrotation Zrotation
								End Site
								{
									OFFSET	1	0	0
								}
							}
						}
					}
					JOINT left_clavicle
					{
						OFFSET	-43.2	22.4	-70.8
						CHANNELS 3  Xrotation Yrotation Zrotation
						JOINT left_shoulder
						{
							OFFSET	-93.9	-5.79999	48.7
							CHANNELS 3  Xrotation Yrotation Zrotation
							JOINT left_elbow
							{
								OFFSET	-291.4	-30.8	15.2
								CHANNELS 3  Xrotation Yrotation Zrotation
								JOINT left_lowarm_twist
								{
									OFFSET	-110.7	-3.89999	13.6
									CHANNELS 3  Xrotation Yrotation Zrotation
									JOINT left_hand
									{
										OFFSET	-110.7	-3.89999	13.6
										CHANNELS 3  Xrotation Yrotation Zrotation
										JOINT left_ee
										{
											OFFSET	-80.8	-5.10001	12.1
											CHANNELS 3  Xrotation Yrotation Zrotation
											End Site
											{
												OFFSET	1	0	0
											}
										}
									}
								}
							}
						}
					}
					JOINT right_clavicle
					{
						OFFSET	43.2	22.4	-70.8
						CHANNELS 3  Xrotation Yrotation Zrotation
						JOINT right_shoulder
						{
							OFFSET	93.9	-5.79999	48.7
							CHANNELS 3  Xrotation Yrotation Zrotation
							JOINT right_elbow
							{
								OFFSET	291.4	-30.8	15.2
								CHANNELS 3  Xrotation Yrotation Zrotation
								JOINT right_lowarm_twist
								{
									OFFSET	110.7	-3.89999	13.6
									CHANNELS 3  Xrotation Yrotation Zrotation
									JOINT right_hand
									{
										OFFSET	110.7	-3.89999	13.6
										CHANNELS 3  Xrotation Yrotation Zrotation
										JOINT right_ee
										{
											OFFSET	80.8	-5.10001	12.1
											CHANNELS 3  Xrotation Yrotation Zrotation
											End Site
											{
												OFFSET	1	0	0
											}
										}
									}
								}
							}
						}
					}
				}
			}
		}
	}
	JOINT left_hip
	{
		OFFSET	-82.8	-127.5	0.300001
		CHANNELS 3  Xrotation Yrotation Zrotation
		JOINT left_knee
		{
			OFFSET	-28.2	-396.7	2.2
			CHANNELS 3  Xrotation Yrotation Zrotation
			JOINT left_ankle
			{
				OFFSET	-11.7	-411.3	35.4
				CHANNELS 3  Xrotation Yrotation Zrotation
				JOINT left_toes
				{
					OFFSET	0	-60	-88.6
					CHANNELS 3  Xrotation Yrotation Zrotation
					JOINT left_foot_ee
					{
						OFFSET	-22.5	-16.5	-42.2
						CHANNELS 3  Xrotation Yrotation Zrotation
						End Site
						{
							OFFSET	1	0	0
						}
					}
				}
			}
		}
	}
	JOINT right_hip
	{
		OFFSET	82.8	-127.5	0.300001
		CHANNELS 3  Xrotation Yrotation Zrotation
		JOINT right_knee
		{
			OFFSET	28.2	-396.7	2.2
			CHANNELS 3  Xrotation Yrotation Zrotation
			JOINT right_ankle
			{
				OFFSET	11.7	-411.3	35.4
				CHANNELS 3  Xrotation Yrotation Zrotation
				JOINT right_toes
				{
					OFFSET	0	-60	-88.6
					CHANNELS 3  Xrotation Yrotation Zrotation
					JOINT right_foot_ee
					{
						OFFSET	22.5	-16.5	-42.2
						CHANNELS 3  Xrotation Yrotation Zrotation
						End Site
						{
							OFFSET	1	0	0
						}
					}
				}
			}
		}
	}
}
MOTION
Frames: 15
Frame Time: 0.02
892.513 713.017 -1443.88 -77.3596 83.2241 80.2269 4.68405 0.0117262 1.16593 4.6848 -0.0624836 1.16431 4.68296 -0.212949 1.14638 4.68113 -0.0292402 1.16562 -13.7999 1.6978 -3.25518 -13.7897 5.23641 -2.56869 -0.0 0.0 -0.0 -4.45033 3.31252 -7.99445 -15.7763 -48.5429 60.3286 1.77243 -41.2797 0.667667 -2.16601 -0.0813361 0.264615 1.96705 -7.45577 10.1672 -0.0 0.0 -0.0 5.65538 -16.4345 -10.8498 -43.454 31.6571 -56.6304 0.726922 19.8037 -0.126894 68.7928 2.61608 7.85634 5.36581 -31.8376 -45.892 0.0 0.0 0.0 8.7028 2.44357 -1.1589 1.70275 -0.0738537 -0.25084 22.5847 -28.8413 -3.74813 -14.1444 0.0 0.0 -0.0 0.0 -0.0 34.1523 26.7332 -11.7634 -37.7932 0.332372 -5.68685 19.9874 -27.9565 2.91933 21.8424 -0.0 -0.0 0.0 0.0 0.0 
889.636 716.025 -1445.17 -80.0628 82.7725 83.5954 4.58529 0.000474258 0.9483 4.58579 -0.0598667 0.946409 4.58444 -0.183688 0.930341 4.58323 -0.0344596 0.947674 -12.9118 0.728402 -2.22991 -12.9025 2.78789 -1.91598 -0.0 0.0 -0.0 -4.40882 3.08563 -7.96203 -15.5869 -49.6208 60.8906 1.67335 -39.6531 0.603356 -2.26107 -0.0851348 0.276157 1.83339 -8.73146 8.70312 -0.0 0.0 -0.0 5.82133 -16.3383 -11.1202 -43.3736 31.6094 -56.2226 0.738235 20.0874 -0.130753 67.9326 2.52871 7.78889 5.40641 -32.0666 -46.2129 0.0 0.0 0.0 9.9979 2.40975 -1.63128 1.3275 -0.0569371 -0.195746 25.0782 -25.7717 -3.95266 -14.8538 0.0 0.0 -0.0 0.0 -0.0 35.7789 31.4158 -14.4992 -36.2496 0.245571 -5.46611 17.1633 -28.7235 2.54757 22.214 -0.0 -0.0 0.0 0.0 0.0 
889.443 712.005 -1446.88 -77.8835 82.0727 81.3191 4.60412 0.0248365 0.972529 4.60464 -0.0370954 0.972139 4.60362 -0.164171 0.958895 4.60234 -0.0106786 0.972787 -12.8285 0.617964 -2.43501 -12.8161 2.71002 -2.14676 -0.0 0.0 -0.0 -4.50382 2.91625 -8.17982 -15.8986 -50.7476 61.1534 1.5507 -37.5278 0.526841 -3.24952 -0.125768 0.3958 1.99193 -7.28868 10.4095 -0.0 0.0 -0.0 5.83823 -16.4083 -11.1448 -44.211 31.7205 -55.7607 0.81442 21.971 -0.158096 65.3554 2.2732 7.57913 5.80737 -32.4981 -49.6455 0.0 0.0 0.0 9.21371 -0.182103 -1.23677 6.09516 -0.298537 -0.886966 25.0862 -28.5941 -4.08556 -19.6643 0.0 0.0 -0.0 0.0 -0.0 34.8401 30.0846 -12.2302 -32.7876 0.0727627 -4.96322 14.6058 -27.7251 2.17374 19.3148 -0.0 -0.0 0.0 0.0 0.0 
887.868 715.298 -1446.41 -80.2855 81.5803 83.6654 4.62163 0.015731 0.98818 4.62218 -0.0471783 0.987179 4.62096 -0.175845 0.972537 4.61964 -0.0200523 0.988102 -11.7423 0.0319824 -2.10696 -11.7306 1.42652 -2.01995 -0.0 0.0 -0.0 -4.22263 3.1752 -7.5868 -16.3468 -51.5084 61.0684 1.47825 -36.2124 0.483369 -4.08102 -0.161546 0.495898 2.13869 -6.53765 11.74 -0.0 0.0 -0.0 5.93683 -16.6296 -11.2946 -44.3607 31.6324 -55.4205 0.83079 22.3694 -0.164273 63.5251 2.09761 7.42332 6.06464 -32.7368 -52.0099 0.0 0.0 0.0 8.81965 -1.58515 -1.06611 7.76318 -0.39657 -1.12384 26.9114 -30.2944 -4.42353 -22.5025 0.0 0.0 -0.0 0.0 -0.0 34.6423 31.5994 -11.8189 -29.7916 -0.0519932 -4.52044 13.5883 -27.4177 2.0255 18.9758 -0.0 -0.0 0.0 0.0 0.0 
886.042 714.648 -1447.93 -81.5278 81.3556 84.9364 4.63819 0.021468 1.06462 4.63882 -0.0463162 1.06383 4.63748 -0.184713 1.0487 4.63595 -0.0167826 1.06471 -10.4654 -1.03195 -3.54212 -10.4299 0.424038 -3.70542 -0.0 0.0 -0.0 -4.10004 4.15682 -7.15394 -16.0349 -52.5687 60.7301 1.31074 -32.9941 0.388201 -6.15145 -0.256924 0.74283 2.09331 -4.57463 12.2576 -0.0 0.0 -0.0 5.98506 -17.4809 -11.3345 -44.4149 31.4875 -55.1164 0.851766 22.8766 -0.172342 61.6253 1.92075 7.25581 6.2707 -32.8726 -54.0295 0.0 0.0 0.0 8.9791 -2.24785 -1.24208 7.65359 -0.389917 -1.10836 28.1066 -31.1718 -4.63479 -24.2465 0.0 0.0 -0.0 0.0 -0.0 33.4659 31.7249 -10.419 -27.247 -0.139629 -4.13978 13.0437 -28.2748 1.95861 19.7375 -0.0 -0.0 0.0 0.0 0.0 
878.08 717.719 -1448.96 -85.0417 81.0954 88.4462 4.66665 0.0475816 1.12194 4.66735 -0.0239024 1.1227 4.66635 -0.16961 1.11007 4.66463 0.00782223 1.12292 -9.67882 -1.18316 -3.21459 -9.64971 -0.0333225 -3.42971 -0.0 0.0 -0.0 -4.28576 5.42991 -7.23999 -16.1281 -53.5204 61.5089 1.28072 -32.3909 0.371987 -9.52285 -0.431178 1.13717 2.05461 -3.20679 12.56 -0.0 0.0 -0.0 6.08637 -18.1992 -11.4596 -43.9165 29.7357 -55.7953 0.815405 21.995 -0.158464 59.7683 1.75334 7.08652 6.36509 -30.8535 -55.4016 0.0 0.0 0.0 9.93962 -1.20046 -1.43988 5.12764 -0.244857 -0.748324 22.7643 -28.4912 -3.75744 -26.2351 0.0 0.0 -0.0 0.0 -0.0 29.9542 32.6578 -8.93357 -21.8729 -0.268686 -3.32546 12.4827 -26.225 1.85423 17.6329 -0.0 -0.0 0.0 0.0 0.0 
877.697 718.015 -1446.84 -84.9915 80.5845 88.2944 4.72813 0.0496674 1.14186 4.72886 -0.0230877 1.1427 4.72783 -0.17019 1.1302 4.72605 0.0104273 1.14289 -9.45115 -1.96275 -3.49191 -9.41783 -1.29382 -3.88884 -0.0 0.0 -0.0 -4.0602 5.71073 -6.76171 -16.0046 -54.2248 61.5846 1.16737 -30.0389 0.313231 -11.1714 -0.524779 1.32615 1.9834 -1.59377 12.7307 -0.0 0.0 -0.0 6.09436 -18.6649 -11.4479 -44.3288 30.5135 -54.7729 0.843254 22.6712 -0.169047 58.6563 1.65577 6.9826 6.55311 -31.3391 -57.4224 0.0 0.0 0.0 10.5201 -0.61178 -0.919549 5.75409 -0.279346 -0.838193 23.1302 -28.8334 -3.82538 -26.365 0.0 0.0 -0.0 0.0 -0.0 28.3539 31.5618 -7.65765 -17.5136 -0.316949 -2.65849 10.5914 -28.5957 1.60637 18.2206 -0.0 -0.0 0.0 0.0 0.0 
874.853 720.099 -1446.9 -84.8637 80.4598 87.9256 4.76526 0.142513 1.13801 4.76597 0.0698147 1.14477 4.7668 -0.0775324 1.14427 4.76499 0.104145 1.14216 -11.0529 -2.01516 -3.25042 -11.0247 -1.66439 -3.67804 -0.0 0.0 -0.0 -4.12657 6.74672 -6.66943 -17.0915 -54.7083 61.6511 1.11728 -28.9622 0.288563 -11.941 -0.570336 1.41344 1.71277 -0.0790531 11.488 -0.0 0.0 -0.0 6.46928 -19.085 -12.005 -43.7477 30.1751 -54.4333 0.772591 20.9427 -0.142794 57.657 1.56983 6.88763 6.308 -30.2537 -54.875 0.0 0.0 0.0 11.6143 -0.169449 -0.5553 3.67349 -0.168612 -0.538328 22.3932 -27.3503 -3.65392 -25.1058 0.0 0.0 -0.0 0.0 -0.0 27.2371 32.976 -7.07353 -16.182 -0.321561 -2.45424 12.055 -28.3401 1.81684 18.4782 -0.0 -0.0 0.0 0.0 0.0 
869.853 726.007 -1448.47 -85.3228 79.93 88.3958 4.96217 0.204959 1.15629 4.9629 0.130971 1.16698 4.96494 -0.015655 1.1742 4.96306 0.169972 1.16194 -10.8193 -1.72229 -2.72903 -10.7994 -1.44189 -3.0943 -0.0 0.0 -0.0 -4.08927 7.1618 -6.51437 -17.8749 -55.0665 61.5502 1.0745 -28.0246 0.268156 -13.4433 -0.662633 1.58207 1.43252 2.013 10.4179 -0.0 0.0 -0.0 6.45901 -19.677 -11.9504 -44.2141 29.6843 -54.3653 0.796077 21.5219 -0.1513 56.6666 1.48631 6.79205 6.4972 -29.9582 -57.0263 0.0 0.0 0.0 11.7286 0.855152 -0.696485 2.80191 -0.125482 -0.411578 22.1029 -25.9978 -3.55694 -27.193 0.0 0.0 -0.0 0.0 -0.0 25.5611 31.8145 -5.90651 -12.7992 -0.311926 -1.93538 8.08044 -28.7766 1.23621 16.676 -0.0 -0.0 0.0 0.0 0.0 
863.461 724.218 -1450.6 -86.58 79.7931 89.6356 5.19544 0.164268 1.17969 5.19621 0.0888736 1.18775 5.19735 -0.0551975 1.18979 5.1954 0.133387 1.18358 -10.8156 -1.60701 -2.771 -10.7948 -1.19612 -3.10486 -0.0 0.0 -0.0 -4.33711 7.70748 -6.84957 -18.9152 -55.5653 61.29 1.03614 -27.1696 0.250384 -13.089 -0.640466 1.54252 1.41206 3.53933 10.8798 -0.0 0.0 -0.0 6.5232 -20.3355 -12.0032 -44.2426 29.4508 -54.1605 0.776296 21.0344 -0.144121 55.9815 1.42951 6.7251 6.52524 -29.6522 -57.3999 0.0 0.0 0.0 11.5037 1.98161 -0.612565 2.39657 -0.106083 -0.352416 21.884 -23.3769 -3.42878 -26.0161 0.0 0.0 -0.0 0.0 -0.0 24.9899 32.1369 -5.76734 -11.5317 -0.30043 -1.74125 8.20787 -28.7297 1.25486 16.6427 -0.0 -0.0 0.0 0.0 0.0 
860.219 726.62 -1456.13 -87.8498 79.4585 90.6833 5.37826 0.0400748 1.13231 5.37897 -0.0320537 1.13257 5.37766 -0.165072 1.12093 5.37591 0.0140185 1.13293 -10.6699 0.972153 -3.17944 -10.6461 3.95068 -2.83382 -0.0 0.0 -0.0 -4.57093 7.8059 -7.25287 -22.9389 -58.2114 58.3843 1.01773 -26.7546 0.242037 -11.0269 -0.516358 1.30969 1.33891 8.04461 12.1114 -0.0 0.0 -0.0 6.59998 -21.6696 -12.019 -44.001 29.1866 -53.9273 0.734971 20.0057 -0.129635 57.5153 1.55778 6.87404 5.93889 -27.6356 -51.2878 0.0 0.0 0.0 11.7818 -1.47285 -0.67735 1.42092 -0.0611144 -0.209472 22.2789 -20.4234 -3.38573 -25.0395 0.0 0.0 -0.0 0.0 -0.0 25.7764 39.649 -7.37222 -11.4403 -0.299435 -1.72725 7.61467 -29.1297 1.16924 17.1719 -0.0 -0.0 0.0 0.0 0.0 
855.553 730.145 -1455.16 -85.9204 78.6726 88.3975 5.53985 0.108209 1.15987 5.5406 0.0341893 1.16441 5.54055 -0.0997227 1.16063 5.53868 0.0848162 1.16182 -10.3584 1.30778 -3.85452 -10.3232 5.04959 -3.41813 -0.0 0.0 -0.0 -4.82617 8.02245 -7.66809 -24.5559 -57.353 58.4362 1.12884 -29.2128 0.294184 -8.94176 -0.399489 1.06993 0.955144 9.36083 10.077 -0.0 0.0 -0.0 6.67238 -22.0244 -12.0975 -43.9259 29.0056 -53.5318 0.72697 19.805 -0.126911 56.0517 1.4353 6.732 5.33994 -29.1584 -45.7814 0.0 0.0 0.0 11.9642 1.26669 -0.562668 1.08103 -0.0460226 -0.159502 20.2171 -20.7025 -3.11599 -21.7703 0.0 0.0 -0.0 0.0 -0.0 24.7245 35.6434 -5.76421 -9.40567 -0.271513 -1.41632 5.82452 -29.8114 0.902921 18.1534 -0.0 -0.0 0.0 0.0 0.0 
853.544 730.775 -1457.44 -90.076 78.0954 92.4969 5.6506 0.17149 1.21446 5.65142 0.0938693 1.22291 5.65257 -0.0447451 1.22569 5.65051 0.149376 1.21737 -9.37339 2.98433 -2.93133 -9.35988 7.61265 -2.16084 -0.0 0.0 -0.0 -5.24894 8.18233 -8.40001 -24.2285 -57.1373 58.8793 1.20911 -30.9187 0.334405 -7.49607 -0.323631 0.901312 0.833352 13.5221 10.8375 -0.0 0.0 -0.0 6.72219 -22.6858 -12.1152 -43.9128 28.5858 -53.6177 0.742996 20.2065 -0.132393 56.4597 1.46908 6.77191 5.22609 -27.8891 -44.8108 0.0 0.0 0.0 13.6079 1.63417 0.0793065 0.628984 -0.026411 -0.0929076 17.851 -22.2888 -2.82866 -20.8016 0.0 0.0 -0.0 0.0 -0.0 24.1042 34.9411 -5.09991 -8.73518 -0.259895 -1.3141 7.98659 -30.6839 1.23848 15.3369 -0.0 -0.0 0.0 0.0 0.0 
848.945 727.725 -1459.41 -87.377 77.8688 88.8123 5.82394 0.224002 1.46136 5.82511 0.130568 1.47265 5.82718 -0.0319545 1.47808 5.82419 0.201856 1.46458 -10.4998 4.36567 -3.01099 -10.5092 10.2428 -1.8027 -0.0 0.0 -0.0 -5.70409 8.17607 -9.23289 -26.3125 -58.114 57.7018 1.21808 -31.1057 0.339026 -5.0246 -0.203904 0.608856 1.25908 13.1469 13.4425 -0.0 0.0 -0.0 6.69865 -23.1498 -12.0415 -43.4667 28.4356 -53.7738 0.717106 19.5567 -0.123589 56.3009 1.45589 6.7564 4.8382 -28.2091 -41.6669 0.0 0.0 0.0 11.9397 4.30003 0.563436 0.173398 -0.00717908 -0.0256408 17.933 -21.5348 -2.81969 -16.7211 0.0 0.0 -0.0 0.0 -0.0 22.7227 34.1912 -3.89521 -6.31118 -0.207926 -0.945774 8.42076 -30.2483 1.30011 14.4449 -0.0 -0.0 0.0 0.0 0.0 
839.562 731.497 -1460.08 -89.6708 78.5883 90.8773 5.93485 0.0726302 1.68912 5.93644 -0.0349844 1.69032 5.93367 -0.217371 1.67665 5.92975 0.0501135 1.68994 -9.45807 3.34153 -2.13209 -9.45794 7.73454 -1.28509 -0.0 0.0 -0.0 -5.8697 8.9175 -9.34771 -27.2175 -57.7395 57.8177 1.16257 -29.9367 0.310832 -3.82535 -0.15039 0.465175 1.01524 17.2337 13.3088 -0.0 0.0 -0.0 6.73665 -24.0518 -12.0157 -43.376 27.7978 -54.0913 0.726906 19.8033 -0.126889 51.9895 1.11489 6.32205 3.86036 -27.7217 -34.4092 0.0 0.0 0.0 10.4228 4.56518 0.583605 0.315477 -0.013119 -0.0466348 17.4176 -20.4335 -2.71774 -15.55 0.0 0.0 -0.0 0.0 -0.0 21.06 36.4586 -3.71321 -6.8024 -0.219716 -1.02024 8.01183 -28.7866 1.22604 17.3882 -0.0 -0.0 0.0 0.0 0.0 
